<svg width="307" height="319" viewBox="0 0 307 319" fill="none" xmlns="http://www.w3.org/2000/svg">
<rect y="19" width="300" height="300" rx="50" fill="#00675E"/>
<path d="M50 117C50 90.4903 71.4903 69 98 69H202C228.51 69 250 90.4903 250 117V221C250 247.51 228.51 269 202 269H98C71.4903 269 50 247.51 50 221V117Z" fill="#EDF6F9"/>
<path d="M50 149C50 104.817 85.8172 69 130 69H170C214.183 69 250 104.817 250 149V189C250 233.183 214.183 269 170 269H130C85.8172 269 50 233.183 50 189V149Z" fill="#EDF6F9"/>
<rect x="121.439" y="213.672" width="220.948" height="40.6154" transform="rotate(-45 121.439 213.672)" fill="#670009"/>
<rect x="64" y="156.234" width="40.6154" height="81.2307" transform="rotate(-45 64 156.234)" fill="#670009"/>
</svg>
